<svg width="84" height="81" viewBox="0 0 84 81" fill="none" xmlns="http://www.w3.org/2000/svg">
<path d="M29.6189 13.9006L1.87257 41.6006C1.22044 42.2516 0.109542 41.7489 0.168073 40.8293L0.665392 33.0157C0.680756 32.7743 0.783088 32.5467 0.953432 32.3749L20.0716 13.1025C20.241 12.9317 20.4664 12.8277 20.7063 12.8096L28.8371 12.1957C29.7626 12.1259 30.2758 13.2449 29.6189 13.9006Z" fill="url(#paint0_linear_2_67)"/>
<path d="M8.44034 37.1368L36.4747 9.72835C37.1336 9.08417 38.2392 9.5984 38.1711 10.5173L37.5921 18.3254C37.5742 18.5666 37.4695 18.7931 37.2974 18.9631L17.9788 38.0346C17.8076 38.2036 17.5812 38.3052 17.3411 38.3208L9.20428 38.8497C8.27811 38.9099 7.7767 37.7856 8.44034 37.1368Z" fill="url(#paint1_linear_2_67)"/>
<path d="M13.5585 51.4259L41.8455 78.5736C42.5103 79.2116 42.0315 80.333 41.1109 80.2942L33.2884 79.9641C33.0467 79.9539 32.817 79.8564 32.6416 79.6898L12.9648 60.9881C12.7904 60.8224 12.6816 60.5993 12.6584 60.3599L11.8708 52.244C11.7811 51.3202 12.8889 50.7833 13.5585 51.4259Z" fill="url(#paint2_linear_2_67)"/>
<path d="M37.2422 72.1027L9.24061 44.6609C8.58248 44.0159 9.07295 42.8996 9.99314 42.948L17.8118 43.3599C18.0533 43.3726 18.2821 43.4725 18.4556 43.6409L37.9359 62.5473C38.1085 62.7148 38.215 62.939 38.2357 63.1787L38.9385 71.3024C39.0184 72.227 37.9051 72.7524 37.2422 72.1027Z" fill="url(#paint3_linear_2_67)"/>
<path d="M53.6505 67.5096L81.0314 39.4484C81.675 38.7889 82.7924 39.2769 82.7459 40.1972L82.351 48.0167C82.3388 48.2583 82.2395 48.4872 82.0714 48.6612L72.6402 58.4211L63.2074 68.1825C63.0402 68.3555 62.8163 68.4624 62.5767 68.4837L54.4545 69.2041C53.5301 69.2861 53.0023 68.1739 53.6505 67.5096Z" fill="url(#paint4_linear_2_67)"/>
<path d="M74.5227 43.9979L46.8499 71.7713C46.1995 72.4241 45.0873 71.9244 45.1434 71.0046L45.62 63.1897C45.6347 62.9483 45.7364 62.7204 45.9063 62.5482L64.9733 43.2251C65.1423 43.0539 65.3673 42.9493 65.6072 42.9306L73.7364 42.2951C74.6617 42.2228 75.1778 43.3404 74.5227 43.9979Z" fill="url(#paint5_linear_2_67)"/>
<path d="M69.6983 29.6314L41.9479 1.93536C41.2957 1.28442 41.7963 0.172608 42.7161 0.229468L50.5306 0.712591C50.772 0.727516 50.9998 0.829435 51.1719 0.999466L70.479 20.0826C70.6501 20.2517 70.7545 20.4769 70.773 20.7167L71.4017 28.8465C71.4732 29.7718 70.3552 30.287 69.6983 29.6314Z" fill="url(#paint6_linear_2_67)"/>
<path d="M46.4237 8.49501L73.883 36.4796C74.5283 37.1373 74.0161 38.2438 73.097 38.1773L65.288 37.6126C65.0467 37.5951 64.82 37.4908 64.6497 37.319L45.5432 18.0351C45.3738 17.8642 45.2718 17.638 45.2558 17.3979L44.7121 9.26206C44.6502 8.336 45.7736 7.83254 46.4237 8.49501Z" fill="url(#paint7_linear_2_67)"/>
<path d="M40.802 47.3296L34.7162 41.2438C34.3257 40.8533 34.3257 40.2201 34.7162 39.8296L40.802 33.7438C41.1925 33.3533 41.8257 33.3533 42.2162 33.7438L48.302 39.8296C48.6925 40.2201 48.6925 40.8533 48.302 41.2438L42.2162 47.3296C41.8257 47.7201 41.1925 47.7201 40.802 47.3296Z" stroke="url(#paint8_linear_2_67)"/>
<path d="M40.802 53.3296L28.2162 40.7438C27.8257 40.3533 27.8257 39.7201 28.2162 39.3296L40.802 26.7438C41.1925 26.3533 41.8257 26.3533 42.2162 26.7438L54.802 39.3296C55.1925 39.7201 55.1925 40.3533 54.802 40.7438L42.2162 53.3296C41.8257 53.7201 41.1925 53.7201 40.802 53.3296Z" stroke="url(#paint9_linear_2_67)"/>
<defs>
<linearGradient id="paint0_linear_2_67" x1="16.0325" y1="11.7334" x2="15.4978" y2="43.729" gradientUnits="userSpaceOnUse">
<stop stop-color="#0359D0"/>
<stop offset="0.536458" stop-color="#3488FC" stop-opacity="0.88"/>
<stop offset="0.942708" stop-color="#006BFE" stop-opacity="0.53"/>
</linearGradient>
<linearGradient id="paint1_linear_2_67" x1="22.0034" y1="39.4458" x2="22.8725" y2="7.45764" gradientUnits="userSpaceOnUse">
<stop stop-color="#0359D0"/>
<stop offset="0.536458" stop-color="#3488FC" stop-opacity="0.88"/>
<stop offset="0.942708" stop-color="#006BFE" stop-opacity="0.53"/>
</linearGradient>
<linearGradient id="paint2_linear_2_67" x1="11.6824" y1="65.0556" x2="43.682" y2="64.9059" gradientUnits="userSpaceOnUse">
<stop stop-color="#0359D0"/>
<stop offset="0.536458" stop-color="#3488FC" stop-opacity="0.88"/>
<stop offset="0.942708" stop-color="#006BFE" stop-opacity="0.53"/>
</linearGradient>
<linearGradient id="paint3_linear_2_67" x1="39.2608" y1="58.4934" x2="7.26129" y2="58.3086" gradientUnits="userSpaceOnUse">
<stop stop-color="#0359D0"/>
<stop offset="0.536458" stop-color="#3488FC" stop-opacity="0.88"/>
<stop offset="0.942708" stop-color="#006BFE" stop-opacity="0.53"/>
</linearGradient>
<linearGradient id="paint4_linear_2_67" x1="67.2641" y1="69.4985" x2="67.3794" y2="37.4987" gradientUnits="userSpaceOnUse">
<stop stop-color="#0359D0"/>
<stop offset="0.536458" stop-color="#3488FC" stop-opacity="0.88"/>
<stop offset="0.942708" stop-color="#006BFE" stop-opacity="0.53"/>
</linearGradient>
<linearGradient id="paint5_linear_2_67" x1="60.9306" y1="41.8668" x2="60.4808" y2="73.8636" gradientUnits="userSpaceOnUse">
<stop stop-color="#0359D0"/>
<stop offset="0.536458" stop-color="#3488FC" stop-opacity="0.88"/>
<stop offset="0.942708" stop-color="#006BFE" stop-opacity="0.53"/>
</linearGradient>
<linearGradient id="paint6_linear_2_67" x1="71.8407" y1="16.041" x2="39.8443" y2="15.5645" gradientUnits="userSpaceOnUse">
<stop stop-color="#0359D0"/>
<stop offset="0.536458" stop-color="#3488FC" stop-opacity="0.88"/>
<stop offset="0.942708" stop-color="#006BFE" stop-opacity="0.53"/>
</linearGradient>
<linearGradient id="paint7_linear_2_67" x1="44.1392" y1="22.0622" x2="76.129" y2="22.8732" gradientUnits="userSpaceOnUse">
<stop stop-color="#0359D0"/>
<stop offset="0.536458" stop-color="#3488FC" stop-opacity="0.88"/>
<stop offset="0.942708" stop-color="#006BFE" stop-opacity="0.53"/>
</linearGradient>
<linearGradient id="paint8_linear_2_67" x1="41.5091" y1="33.0367" x2="41.5091" y2="48.0367" gradientUnits="userSpaceOnUse">
<stop stop-color="#0359D0"/>
<stop offset="0.536458" stop-color="#3488FC" stop-opacity="0.88"/>
<stop offset="0.942708" stop-color="#006BFE" stop-opacity="0.53"/>
</linearGradient>
<linearGradient id="paint9_linear_2_67" x1="41.5091" y1="26.0367" x2="41.5091" y2="54.0367" gradientUnits="userSpaceOnUse">
<stop stop-color="#0359D0"/>
<stop offset="0.536458" stop-color="#3488FC" stop-opacity="0.88"/>
<stop offset="0.942708" stop-color="#006BFE" stop-opacity="0.53"/>
</linearGradient>
</defs>
</svg>
