<svg width="133" height="279" viewBox="0 0 133 279" fill="none" xmlns="http://www.w3.org/2000/svg">
<path d="M119.949 92.8141C119.518 92.8338 119.097 92.9549 118.72 93.1672C118.344 93.3796 118.023 93.6772 117.783 94.0364C117.543 94.3956 117.391 94.8057 117.339 95.2345C117.287 95.6633 117.337 96.0985 117.484 96.5046C124.785 117.823 118.008 141.4 100.51 155.602C83.0122 169.804 58.5376 171.579 39.1689 160.056C19.7997 148.535 9.69267 126.187 13.8314 104.037C13.9621 103.319 13.803 102.579 13.3891 101.979C12.9752 101.378 12.3401 100.965 11.6228 100.832C10.9055 100.698 10.1644 100.854 9.56168 101.265C8.959 101.676 8.54381 102.309 8.40697 103.026C3.84668 127.428 15.0102 152.098 36.349 164.792C57.6873 177.485 84.7096 175.531 103.987 159.885C123.264 144.238 130.737 118.204 122.694 94.7185C122.508 94.1444 122.139 93.6472 121.643 93.3031C121.147 92.9591 120.552 92.7873 119.949 92.8141V92.8141Z" fill="#0E1E40"/>
<path d="M59.9578 105.276C59.8972 105.274 59.8365 105.274 59.7759 105.276C37.5823 107.716 19.76 123.526 16.5824 144.014C16.5188 144.375 16.528 144.746 16.6094 145.103C16.6908 145.461 16.8428 145.798 17.0565 146.096C17.2702 146.394 17.5412 146.647 17.8538 146.839C18.1663 147.031 18.514 147.158 18.8766 147.214C19.2391 147.27 19.6092 147.253 19.965 147.164C20.3209 147.076 20.6554 146.916 20.949 146.696C21.2425 146.476 21.4892 146.2 21.6745 145.884C21.8599 145.567 21.9802 145.217 22.0283 144.854C24.7931 127.031 40.4293 112.946 60.3788 110.754C61.0828 110.667 61.7264 110.314 62.1759 109.765C62.6254 109.217 62.8461 108.516 62.7921 107.809C62.7382 107.102 62.4137 106.444 61.8862 105.97C61.3587 105.496 60.6688 105.243 59.96 105.265L59.9578 105.276Z" fill="#0E1E40"/>
<path fill-rule="evenodd" clip-rule="evenodd" d="M63.3713 15.9793C53.6781 15.9793 36.5485 20.1862 36.5485 20.1862L34.6649 20.6382L33.0722 34.9605L38.5506 35.5632L39.7024 25.2437C41.9547 24.7312 55.9822 21.4886 63.3713 21.4886C70.7576 21.4886 84.7547 24.7301 87.0186 25.2437L88.1814 36.9194L93.6599 36.3678L92.0881 20.6355L90.183 20.1835C90.183 20.1835 73.065 15.9766 63.3713 15.9766V15.9793Z" fill="#68C2E8"/>
<path fill-rule="evenodd" clip-rule="evenodd" d="M63.959 3.30303e-05C63.6742 -0.00136219 63.3909 0.0414525 63.1192 0.126841L19.0318 13.9869C18.4644 14.1639 17.9694 14.5195 17.6208 15.0007C17.2721 15.4819 17.0884 16.0628 17.0971 16.6569C17.1058 17.2511 17.3063 17.8265 17.6689 18.2973C18.0315 18.7682 18.5366 19.1094 19.1089 19.2698L30.1308 22.3687L35.6417 23.9186L38.3972 24.6936L39.8934 19.3882L37.1379 18.6139L31.627 17.0646L29.4959 16.4618L63.9497 5.63608L98.3929 16.4618L96.2619 17.0646L90.7509 18.6139L87.9955 19.3882L89.4917 24.6936L92.2472 23.9186L97.7581 22.3687L108.78 19.2698C109.352 19.1094 109.857 18.7682 110.22 18.2973C110.583 17.8265 110.783 17.2511 110.792 16.6569C110.8 16.0628 110.617 15.4819 110.268 15.0007C109.919 14.5195 109.424 14.1639 108.857 13.9869L64.7697 0.126841C64.5084 0.0447095 64.2363 0.00193287 63.9623 3.30303e-05H63.959Z" fill="#68C2E8"/>
<path fill-rule="evenodd" clip-rule="evenodd" d="M19.8622 161.142C19.4314 161.141 19.0063 161.241 18.6209 161.433C18.2356 161.626 17.9007 161.906 17.6432 162.251C17.3857 162.596 17.2128 162.997 17.1383 163.421C17.0638 163.845 17.0898 164.281 17.2142 164.694L19.9482 174.26C20.0384 174.618 20.1998 174.954 20.4226 175.249C20.6454 175.543 20.9252 175.79 21.2453 175.974C21.5654 176.158 21.9193 176.276 22.2859 176.321C22.6526 176.366 23.0245 176.337 23.3796 176.235C23.7346 176.133 24.0656 175.961 24.3529 175.729C24.6401 175.497 24.8778 175.209 25.0516 174.883C25.2255 174.558 25.3321 174.2 25.3651 173.833C25.3981 173.465 25.3568 173.094 25.2436 172.743L22.5097 163.176C22.3517 162.594 22.0073 162.08 21.529 161.713C21.0508 161.346 20.4653 161.145 19.8622 161.142V161.142Z" fill="#68C2E8"/>
<path fill-rule="evenodd" clip-rule="evenodd" d="M27.5726 160.48C27.1418 160.478 26.7167 160.578 26.3313 160.77C25.946 160.963 25.6111 161.243 25.3536 161.588C25.0961 161.933 24.9232 162.334 24.8487 162.758C24.7742 163.182 24.8002 163.618 24.9246 164.031L27.6586 173.597C27.7488 173.955 27.9102 174.291 28.133 174.586C28.3558 174.88 28.6356 175.127 28.9557 175.311C29.2758 175.495 29.6297 175.613 29.9963 175.658C30.363 175.703 30.7349 175.674 31.0899 175.572C31.445 175.47 31.776 175.298 32.0633 175.066C32.3505 174.834 32.5881 174.546 32.762 174.22C32.9359 173.895 33.0425 173.537 33.0755 173.17C33.1085 172.802 33.0672 172.431 32.954 172.08L30.22 162.513C30.0621 161.931 29.7176 161.417 29.2394 161.05C28.7612 160.683 28.1756 160.482 27.5726 160.48Z" fill="#68C2E8"/>
<path fill-rule="evenodd" clip-rule="evenodd" d="M35.7323 161.142C35.3015 161.141 34.8764 161.241 34.491 161.433C34.1057 161.626 33.7708 161.906 33.5133 162.251C33.2558 162.596 33.0829 162.997 33.0084 163.421C32.9339 163.845 32.9599 164.281 33.0843 164.694L35.8183 174.26C35.9085 174.618 36.0698 174.954 36.2927 175.249C36.5155 175.543 36.7953 175.79 37.1154 175.974C37.4355 176.158 37.7894 176.276 38.156 176.321C38.5227 176.366 38.8946 176.337 39.2496 176.235C39.6047 176.133 39.9357 175.961 40.223 175.729C40.5102 175.497 40.7478 175.209 40.9217 174.883C41.0956 174.558 41.2022 174.2 41.2352 173.833C41.2682 173.465 41.2269 173.094 41.1137 172.743L38.3797 163.176C38.2218 162.594 37.8773 162.08 37.3991 161.713C36.9209 161.346 36.3353 161.145 35.7323 161.142V161.142Z" fill="#68C2E8"/>
<path fill-rule="evenodd" clip-rule="evenodd" d="M113.553 161.807C112.966 161.83 112.403 162.04 111.944 162.406C111.485 162.772 111.155 163.274 111.002 163.84L108.268 173.407C108.154 173.759 108.113 174.129 108.146 174.497C108.179 174.865 108.286 175.222 108.46 175.548C108.633 175.873 108.871 176.161 109.158 176.393C109.446 176.625 109.777 176.797 110.132 176.899C110.487 177.001 110.859 177.03 111.225 176.985C111.592 176.94 111.946 176.822 112.266 176.638C112.586 176.454 112.866 176.207 113.089 175.913C113.311 175.618 113.473 175.282 113.563 174.924L116.297 165.358C116.424 164.938 116.449 164.493 116.37 164.061C116.29 163.629 116.108 163.223 115.84 162.876C115.571 162.528 115.224 162.249 114.826 162.064C114.428 161.878 113.991 161.79 113.553 161.807V161.807Z" fill="#68C2E8"/>
<path fill-rule="evenodd" clip-rule="evenodd" d="M105.18 161.807C104.594 161.83 104.03 162.04 103.571 162.406C103.113 162.772 102.783 163.274 102.629 163.84L99.8954 173.407C99.7822 173.759 99.7409 174.129 99.7739 174.497C99.8069 174.865 99.9135 175.222 100.087 175.548C100.261 175.873 100.499 176.161 100.786 176.393C101.073 176.625 101.404 176.797 101.759 176.899C102.114 177.001 102.486 177.03 102.853 176.985C103.22 176.94 103.574 176.822 103.894 176.638C104.214 176.454 104.494 176.207 104.716 175.913C104.939 175.618 105.101 175.282 105.191 174.924L107.925 165.358C108.052 164.938 108.077 164.493 107.997 164.061C107.918 163.629 107.736 163.223 107.468 162.876C107.199 162.528 106.851 162.249 106.454 162.064C106.056 161.878 105.619 161.79 105.18 161.807V161.807Z" fill="#68C2E8"/>
<path fill-rule="evenodd" clip-rule="evenodd" d="M96.3576 161.807C95.7712 161.83 95.2076 162.04 94.7487 162.406C94.2899 162.772 93.9598 163.274 93.8066 163.84L91.0726 173.407C90.9595 173.759 90.9182 174.129 90.9511 174.497C90.9841 174.865 91.0907 175.222 91.2646 175.548C91.4385 175.873 91.6761 176.161 91.9634 176.393C92.2506 176.625 92.5816 176.797 92.9367 176.899C93.2918 177.001 93.6637 177.03 94.0303 176.985C94.3969 176.94 94.7508 176.822 95.0709 176.638C95.391 176.454 95.6708 176.207 95.8936 175.913C96.1165 175.618 96.2778 175.282 96.3681 174.924L99.102 165.358C99.2292 164.938 99.2541 164.493 99.1746 164.061C99.095 163.629 98.9135 163.223 98.6449 162.876C98.3764 162.528 98.0287 162.249 97.6308 162.064C97.233 161.878 96.7964 161.79 96.3576 161.807V161.807Z" fill="#68C2E8"/>
<path d="M76.7749 104.602C76.0863 104.646 75.4394 104.946 74.9618 105.444C74.4842 105.942 74.2108 106.601 74.1956 107.291C74.1803 107.98 74.4244 108.651 74.8795 109.169C75.3347 109.687 75.9677 110.016 76.6536 110.091C91.5778 111.927 104.37 120.54 110.677 132.795C110.834 133.131 111.056 133.432 111.332 133.68C111.608 133.928 111.931 134.118 112.282 134.239C112.633 134.359 113.005 134.407 113.375 134.38C113.745 134.353 114.106 134.251 114.436 134.082C114.765 133.912 115.058 133.678 115.295 133.393C115.532 133.108 115.709 132.778 115.815 132.422C115.922 132.067 115.955 131.694 115.914 131.325C115.872 130.956 115.757 130.6 115.575 130.277C108.365 116.267 93.9381 106.669 77.321 104.623C77.1378 104.605 76.9532 104.605 76.7699 104.623L76.7749 104.602Z" fill="#0E1E40"/>
<path d="M35.7203 49.4922C20.535 49.4922 8.1657 61.8579 8.1657 77.0394C8.1657 92.2203 20.535 104.587 35.7203 104.587C50.9057 104.587 63.2749 92.2203 63.2749 77.0394C63.2749 61.8579 50.9057 49.4922 35.7203 49.4922ZM35.7203 55.0018C47.9276 55.0018 57.764 64.8355 57.764 77.0394C57.764 89.2433 47.9276 99.077 35.7203 99.077C23.5136 99.077 13.6766 89.2433 13.6766 77.0394C13.6766 64.8355 23.5136 55.0018 35.7203 55.0018Z" fill="#0E1E40"/>
<path d="M98.4246 60.5305C94.7042 60.6848 91.0284 62.0866 88.0916 64.7054C87.5464 65.192 87.2168 65.8756 87.1754 66.6052C87.134 67.3347 87.3842 68.0506 87.8709 68.5957C88.3576 69.1408 89.041 69.4699 89.7707 69.5113C90.5004 69.5527 91.2166 69.303 91.7619 68.8164C95.6983 65.3059 101.521 65.0596 105.733 68.2345C109.945 71.4099 111.32 77.0767 109.027 81.8254C106.733 86.5748 101.443 89.0225 96.3365 87.701C91.2295 86.3795 87.7913 81.6784 88.0916 76.4127C88.1226 76.0459 88.0798 75.677 87.9657 75.327C87.8516 74.977 87.6684 74.6531 87.4271 74.3751C87.1858 74.097 86.8912 73.87 86.5607 73.7077C86.2302 73.5454 85.8705 73.4516 85.5028 73.4306C85.1352 73.4096 84.7671 73.4624 84.4203 73.586C84.0734 73.7096 83.7549 73.9009 83.4835 74.1497C83.212 74.3985 82.9932 74.6996 82.84 75.0343C82.6867 75.3691 82.6021 75.7306 82.5912 76.0986C82.1448 83.9538 87.3394 91.0645 94.9588 93.0363C102.578 95.0076 110.567 91.309 113.989 84.223C117.41 77.1371 115.332 68.5795 109.048 63.8423C105.906 61.4731 102.144 60.3753 98.4246 60.5285V60.5305Z" fill="#68C2E8"/>
<path d="M99.213 68.0122C98.4806 68.0122 97.7783 68.3031 97.2605 68.8208C96.7427 69.3385 96.4518 70.0403 96.4518 70.7724C96.4518 71.5045 96.7427 72.2069 97.2605 72.7246C97.7783 73.2423 98.4806 73.5332 99.213 73.5332C100.257 73.5332 101.043 74.3174 101.043 75.3617C101.043 75.7242 101.114 76.0836 101.253 76.4185C101.392 76.7534 101.595 77.0576 101.851 77.3139C102.108 77.5702 102.412 77.7732 102.747 77.912C103.082 78.0507 103.441 78.1225 103.804 78.1225C104.166 78.1225 104.525 78.0507 104.86 77.912C105.195 77.7732 105.499 77.5702 105.756 77.3139C106.012 77.0576 106.216 76.7534 106.354 76.4185C106.493 76.0836 106.565 75.7242 106.565 75.3617C106.565 71.3348 103.241 68.0122 99.213 68.0122Z" fill="#68C2E8"/>
<path d="M101.853 49.4922C86.6674 49.4922 74.2982 61.8579 74.2982 77.0394C74.2982 92.2203 86.6674 104.587 101.853 104.587C117.038 104.587 129.407 92.2203 129.407 77.0394C129.407 61.8579 117.038 49.4922 101.853 49.4922ZM101.853 55.0018C114.06 55.0018 123.896 64.8355 123.896 77.0394C123.896 89.2433 114.06 99.077 101.853 99.077C89.6461 99.077 79.8091 89.2433 79.8091 77.0394C79.8091 64.8355 89.6461 55.0018 101.853 55.0018Z" fill="#0E1E40"/>
<path d="M20.7993 23.5808C16.2776 23.5808 12.5654 27.324 12.5654 31.8452C12.5603 32.2102 12.6277 32.5727 12.7639 32.9114C12.9001 33.2502 13.1022 33.5583 13.3586 33.8183C13.615 34.0782 13.9205 34.2848 14.2573 34.4257C14.5942 34.5666 14.9557 34.639 15.3209 34.639C15.6861 34.639 16.0476 34.5666 16.3845 34.4257C16.7214 34.2848 17.0269 34.0782 17.2832 33.8183C17.5396 33.5583 17.7418 33.2502 17.8779 32.9114C18.0141 32.5727 18.0815 32.2102 18.0764 31.8452C18.0764 30.2812 19.2761 29.0897 20.7993 29.0897C22.322 29.0897 23.5118 30.2812 23.5118 31.8452C23.5118 32.4729 23.4346 33.3569 23.341 33.6958C23.2351 34.0467 23.2002 34.4151 23.2385 34.7796C23.2768 35.1441 23.3875 35.4978 23.564 35.8189C23.7405 36.1401 23.9794 36.4227 24.2666 36.6504C24.5538 36.8782 24.8835 37.0461 25.2365 37.1449C25.5895 37.2436 25.9587 37.2712 26.3224 37.2256C26.6861 37.18 27.0371 37.0621 27.3547 36.8791C27.6724 36.6962 27.9503 36.4517 28.1723 36.16C28.3943 35.8684 28.5558 35.5354 28.6474 35.1805C29.0056 33.9053 29.0222 32.7391 29.0222 31.8452C29.0222 27.324 25.321 23.5808 20.7988 23.5808H20.7993Z" fill="#68C2E8"/>
<path fill-rule="evenodd" clip-rule="evenodd" d="M16.6444 15.3144V26.3332H22.1553V15.3144H16.6444Z" fill="#68C2E8"/>
<path d="M30.9211 60.643C27.2073 61.1059 23.6472 62.8216 20.9326 65.7005C20.6845 65.9641 20.4907 66.2737 20.3624 66.6121C20.2341 66.9505 20.1737 67.3112 20.1847 67.673C20.1957 68.0347 20.2778 68.3904 20.4264 68.7204C20.575 69.0504 20.7872 69.3476 21.0508 69.5956C21.3144 69.8436 21.6243 70.0378 21.9628 70.1661C22.3013 70.2943 22.6617 70.3546 23.0235 70.3437C23.3853 70.3327 23.7415 70.2507 24.0715 70.1021C24.4016 69.9536 24.6992 69.7414 24.9473 69.4779C28.5872 65.6175 34.4101 64.8856 38.886 67.7342C43.3626 70.5833 45.1602 76.1685 43.2022 81.0991C41.2442 86.0292 36.1008 88.8528 30.8891 87.8559C25.6769 86.8601 21.9444 82.336 21.9444 77.0312C21.9495 76.6661 21.8821 76.3043 21.7459 75.9656C21.6098 75.6268 21.4076 75.318 21.1512 75.0581C20.8948 74.7981 20.5893 74.5922 20.2525 74.4513C19.9156 74.3104 19.5541 74.2374 19.1889 74.2374C18.8237 74.2374 18.4622 74.3104 18.1253 74.4513C17.7885 74.5922 17.483 74.7981 17.2266 75.0581C16.9702 75.318 16.7681 75.6268 16.6319 75.9656C16.4957 76.3043 16.4283 76.6661 16.4334 77.0312C16.4334 84.9448 22.0805 91.7824 29.8559 93.2693C37.6307 94.755 45.4049 90.4876 48.3257 83.1327C51.2465 75.7773 48.5241 67.3357 41.846 63.0857C38.5074 60.9612 34.6349 60.1801 30.9211 60.643V60.643Z" fill="#68C2E8"/>
<path d="M33.7435 69.3373C33.0112 69.3373 32.3089 69.6282 31.7911 70.1459C31.2732 70.6636 30.9823 71.3653 30.9823 72.0975C30.9823 72.8296 31.2732 73.532 31.7911 74.0497C32.3089 74.5674 33.0112 74.8583 33.7435 74.8583C34.7878 74.8583 35.5731 75.6424 35.5731 76.6867C35.5731 77.4188 35.864 78.1213 36.3818 78.639C36.8996 79.1566 37.6018 79.4476 38.3341 79.4476C39.0664 79.4476 39.7686 79.1566 40.2864 78.639C40.8042 78.1213 41.0951 77.4188 41.0951 76.6867C41.0951 72.6599 37.7714 69.3373 33.7435 69.3373V69.3373Z" fill="#68C2E8"/>
<path fill-rule="evenodd" clip-rule="evenodd" d="M6.22328 30.9014C5.85879 30.8958 5.49681 30.962 5.15828 31.0972C4.81976 31.2324 4.51143 31.4334 4.25115 31.6885C3.99087 31.9437 3.78382 32.2482 3.64198 32.5839C3.50014 32.9196 3.42633 33.2804 3.42483 33.6448C3.42368 33.6907 3.42368 33.7361 3.42483 33.782C3.42483 33.782 3.42483 33.8594 3.42483 33.8594C3.42349 33.909 3.42349 33.9585 3.42483 34.0081C3.42483 34.212 3.62323 37.8648 4.31815 42.2509C4.67636 44.5043 5.16077 46.9049 5.85735 49.1059C6.55394 51.3064 7.36129 53.3303 8.95725 54.9169C9.21201 55.18 9.51669 55.3897 9.85348 55.5338C10.1903 55.6778 10.5524 55.7533 10.9187 55.7558C11.285 55.7582 11.6481 55.6873 11.9869 55.5479C12.3256 55.4084 12.6331 55.2035 12.8914 54.9438C13.1497 54.6841 13.3536 54.375 13.4913 54.0356C13.6289 53.6962 13.6975 53.3328 13.693 52.9667C13.6885 52.6005 13.611 52.239 13.465 51.9031C13.3191 51.5672 13.1076 51.2636 12.843 51.0104C12.4462 50.6191 11.6774 49.2417 11.1104 47.449C10.5427 45.6563 10.0848 43.4725 9.75413 41.3905C9.42347 39.3112 9.46205 38.9012 9.3353 37.4524C12.0461 38.414 14.7817 39.5389 18.1936 40.0773C29.4458 41.8557 40.272 38.3778 49.3429 40.7662C51.0982 41.2291 54.3375 42.8866 56.899 44.4137C59.461 45.9408 61.4521 47.3091 61.4521 47.3091C61.8799 47.6055 62.383 47.7744 62.903 47.7968C63.423 47.8192 63.9388 47.694 64.3905 47.4356C64.3905 47.4356 66.8969 45.9889 70.0954 44.3901C73.294 42.7914 77.2718 41.0642 79.5781 40.5489C88.5234 38.5523 98.9225 41.6599 109.791 40.0854C113.286 39.5784 116.271 38.4445 118.929 37.5567C118.929 38.876 119.001 39.2078 118.748 41.2694C118.505 43.2825 118.093 45.4742 117.467 47.4779C117.251 48.1749 117.321 48.929 117.66 49.5748C118 50.2206 118.582 50.7051 119.278 50.9229C119.974 51.1407 120.729 51.0738 121.376 50.7366C122.023 50.3994 122.51 49.8196 122.73 49.1241C123.492 46.686 123.942 44.1955 124.215 41.9361C124.774 37.4232 124.623 33.7686 124.623 33.7686C124.607 33.3382 124.489 32.9177 124.281 32.5409C124.072 32.164 123.778 31.8411 123.423 31.5984C123.067 31.3557 122.659 31.2002 122.232 31.1436C121.805 31.087 121.37 31.1312 120.963 31.2728C120.963 31.2728 112.582 34.1009 109.005 34.6189C99.7999 35.9525 89.22 32.7359 78.3723 35.1591C74.9798 35.9163 70.9871 37.7743 67.6304 39.4524C65.1185 40.7078 64.0428 41.3342 63.1423 41.8412C62.3482 41.3067 61.6422 40.8138 59.7195 39.667C56.9838 38.0363 53.744 36.2146 50.7532 35.4282C39.5688 32.4831 28.4973 36.1235 19.0549 34.6317C15.4921 34.069 7.1177 31.0481 7.1177 31.0481C6.82184 30.9347 6.50864 30.8734 6.19187 30.8665L6.22328 30.9014Z" fill="#0E1E40"/>
<path fill-rule="evenodd" clip-rule="evenodd" d="M67.2312 88.0704C66.5336 88.0872 65.8683 88.368 65.3696 88.8561L55.7255 98.3146C55.2776 98.7557 54.994 99.3363 54.9219 99.9607C54.8497 100.585 54.9933 101.215 55.3287 101.747L64.9729 117.081C65.2212 117.474 65.5652 117.798 65.9727 118.023C66.3801 118.247 66.8379 118.365 67.3032 118.365C67.7684 118.365 68.2262 118.247 68.6336 118.023C69.0411 117.798 69.3851 117.474 69.6334 117.081L79.2776 101.747C79.613 101.215 79.7566 100.585 79.6844 99.9607C79.6123 99.3363 79.3287 98.7557 78.8808 98.3146L69.2367 88.8561C68.9727 88.5976 68.6594 88.3944 68.3155 88.2594C67.9715 88.1244 67.6039 88.0605 67.2345 88.0704H67.2312ZM67.3084 94.6879L73.4327 100.693L67.2979 110.441L61.1731 100.693L67.3084 94.6879Z" fill="#68C2E8"/>
<path d="M12.4867 222.425C14.051 220.247 16.1601 218.598 18.8139 217.481C21.4676 216.364 24.5265 215.805 27.9903 215.805V227.873C26.5377 227.761 25.56 227.705 25.0572 227.705C21.314 227.705 18.3809 228.753 16.2579 230.848C14.1348 232.943 13.0733 236.085 13.0733 240.276V261.562H0V216.475H12.4867V222.425ZM35.784 261.562V216.475H48.8574V261.562H35.784ZM42.3207 210.19C39.9184 210.19 37.9629 209.492 36.4545 208.095C34.946 206.698 34.1918 204.966 34.1918 202.899C34.1918 200.832 34.946 199.1 36.4545 197.703C37.9629 196.307 39.9184 195.608 42.3207 195.608C44.7231 195.608 46.6785 196.279 48.187 197.62C49.6954 198.961 50.4496 200.637 50.4496 202.648C50.4496 204.827 49.6954 206.629 48.187 208.053C46.6785 209.478 44.7231 210.19 42.3207 210.19ZM57.6567 278.49C53.0755 278.49 49.5837 277.652 47.1813 275.976L50.701 266.506C52.2095 267.568 54.0532 268.098 56.2321 268.098C57.9081 268.098 59.2211 267.554 60.1708 266.464C61.1206 265.375 61.5955 263.741 61.5955 261.562V216.475H74.6688V261.478C74.6688 266.73 73.1743 270.878 70.1853 273.923C67.1964 276.968 63.0201 278.49 57.6567 278.49ZM68.1322 210.19C65.7298 210.19 63.7744 209.492 62.2659 208.095C60.7575 206.698 60.0032 204.966 60.0032 202.899C60.0032 200.832 60.7575 199.1 62.2659 197.703C63.7744 196.307 65.7298 195.608 68.1322 195.608C70.5345 195.608 72.4899 196.279 73.9984 197.62C75.5069 198.961 76.2611 200.637 76.2611 202.648C76.2611 204.827 75.5069 206.629 73.9984 208.053C72.4899 209.478 70.5345 210.19 68.1322 210.19ZM108.19 262.232C103.441 262.232 99.1813 261.24 95.4102 259.257C91.639 257.274 88.6919 254.522 86.5689 251.002C84.4459 247.483 83.3844 243.488 83.3844 239.019C83.3844 234.549 84.4459 230.554 86.5689 227.035C88.6919 223.515 91.639 220.763 95.4102 218.78C99.1813 216.797 103.441 215.805 108.19 215.805C112.939 215.805 117.185 216.797 120.928 218.78C124.672 220.763 127.605 223.515 129.728 227.035C131.851 230.554 132.912 234.549 132.912 239.019C132.912 243.488 131.851 247.483 129.728 251.002C127.605 254.522 124.672 257.274 120.928 259.257C117.185 261.24 112.939 262.232 108.19 262.232ZM108.19 251.505C111.542 251.505 114.294 250.374 116.445 248.111C118.596 245.849 119.671 242.818 119.671 239.019C119.671 235.219 118.596 232.189 116.445 229.926C114.294 227.663 111.542 226.532 108.19 226.532C104.838 226.532 102.073 227.663 99.8936 229.926C97.7148 232.189 96.6253 235.219 96.6253 239.019C96.6253 242.818 97.7148 245.849 99.8936 248.111C102.073 250.374 104.838 251.505 108.19 251.505Z" fill="#68C2E8"/>
</svg>
